<svg xmlns="http://www.w3.org/2000/svg" viewBox="0 0 1920 1440" width="1920" height="1440">
  <defs>
    <linearGradient id="computerBg" x1="0%" y1="0%" x2="0%" y2="100%">
      <stop offset="0%" style="stop-color:#f8f9fa;stop-opacity:1" />
      <stop offset="100%" style="stop-color:#e9ecef;stop-opacity:1" />
    </linearGradient>
    <linearGradient id="laptopScreen" x1="0%" y1="0%" x2="100%" y2="100%">
      <stop offset="0%" style="stop-color:#ffffff;stop-opacity:1" />
      <stop offset="100%" style="stop-color:#f1f3f5;stop-opacity:1" />
    </linearGradient>
  </defs>
  <rect width="1920" height="1440" fill="url(#computerBg)"/>
  <g>
    <rect x="260" y="180" width="1400" height="880" rx="24" ry="24" fill="#1d1d1f"/>
    <rect x="300" y="220" width="1320" height="800" rx="8" ry="8" fill="url(#laptopScreen)"/>
    <rect x="200" y="1060" width="1520" height="30" rx="6" ry="6" fill="#ced4da"/>
    <rect x="760" y="1090" width="400" height="80" rx="0 0 20 20" fill="#adb5bd"/>
    <rect x="360" y="280" width="200" height="40" rx="6" fill="#e9ecef"/>
    <rect x="360" y="340" width="600" height="28" rx="4" fill="#f1f3f5"/>
    <rect x="360" y="380" width="480" height="28" rx="4" fill="#f8f9fa"/>
    <rect x="360" y="460" width="1200" height="520" rx="12" fill="#e9ecef"/>
    <rect x="360" y="460" width="1200" height="60" rx="12" fill="#dee2e6"/>
    <circle cx="400" cy="490" r="12" fill="#fa5252"/>
    <circle cx="436" cy="490" r="12" fill="#ffd43b"/>
    <circle cx="472" cy="490" r="12" fill="#51cf66"/>
    <rect x="360" y="540" width="280" height="360" rx="8" fill="#f1f3f5"/>
    <rect x="660" y="540" width="860" height="160" rx="8" fill="#f8f9fa"/>
    <rect x="660" y="720" width="860" height="180" rx="8" fill="#f1f3f5"/>
  </g>
</svg>
