<svg xmlns="http://www.w3.org/2000/svg" viewBox="0 0 1440 900" width="1440" height="900">
  <defs>
    <linearGradient id="computer2Bg" x1="0%" y1="0%" x2="0%" y2="100%">
      <stop offset="0%" style="stop-color:#f8f9fa;stop-opacity:1" />
      <stop offset="100%" style="stop-color:#e9ecef;stop-opacity:1" />
    </linearGradient>
  </defs>
  <rect width="1440" height="900" fill="url(#computer2Bg)"/>
  <g>
    <rect x="180" y="80" width="1080" height="680" rx="20" fill="#212529"/>
    <rect x="210" y="110" width="1020" height="620" rx="6" fill="#ffffff"/>
    <rect x="120" y="760" width="1200" height="24" rx="4" fill="#ced4da"/>
    <rect x="620" y="784" width="200" height="60" rx="0 0 12 12" fill="#adb5bd"/>
    <rect x="250" y="150" width="200" height="36" rx="4" fill="#e9ecef"/>
    <rect x="250" y="200" width="800" height="24" rx="2" fill="#f1f3f5"/>
    <rect x="250" y="240" width="600" height="24" rx="2" fill="#f8f9fa"/>
    <rect x="250" y="300" width="940" height="400" rx="8" fill="#f8f9fa"/>
    <rect x="250" y="300" width="200" height="400" rx="8" fill="#e9ecef"/>
    <rect x="280" y="340" width="140" height="24" rx="3" fill="#dee2e6"/>
    <rect x="280" y="380" width="100" height="16" rx="2" fill="#f1f3f5"/>
    <rect x="280" y="410" width="100" height="16" rx="2" fill="#f8f9fa"/>
    <rect x="280" y="440" width="100" height="16" rx="2" fill="#f1f3f5"/>
    <rect x="280" y="470" width="100" height="16" rx="2" fill="#f8f9fa"/>
    <rect x="500" y="340" width="600" height="320" rx="6" fill="#ffffff"/>
    <rect x="500" y="340" width="600" height="40" rx="6" fill="#f1f3f5"/>
    <circle cx="525" cy="360" r="8" fill="#fa5252"/>
    <circle cx="549" cy="360" r="8" fill="#ffd43b"/>
    <circle cx="573" cy="360" r="8" fill="#51cf66"/>
    <rect x="530" y="400" width="280" height="240" rx="4" fill="#e9ecef"/>
    <rect x="830" y="400" width="260" height="100" rx="4" fill="#f8f9fa"/>
    <rect x="830" y="520" width="260" height="120" rx="4" fill="#f1f3f5"/>
  </g>
</svg>
