<svg xmlns="http://www.w3.org/2000/svg" viewBox="0 0 1080 1920" width="1080" height="1920">
  <defs>
    <linearGradient id="phoneBg" x1="0%" y1="0%" x2="100%" y2="100%">
      <stop offset="0%" style="stop-color:#f8f9fa;stop-opacity:1" />
      <stop offset="100%" style="stop-color:#e9ecef;stop-opacity:1" />
    </linearGradient>
    <linearGradient id="screenArea" x1="0%" y1="0%" x2="100%" y2="100%">
      <stop offset="0%" style="stop-color:#ffffff;stop-opacity:1" />
      <stop offset="100%" style="stop-color:#f1f3f5;stop-opacity:1" />
    </linearGradient>
  </defs>
  <rect width="1080" height="1920" fill="url(#phoneBg)"/>
  <g>
    <rect x="140" y="120" width="800" height="1680" rx="80" ry="80" fill="#1d1d1f"/>
    <rect x="170" y="180" width="740" height="1520" rx="30" ry="30" fill="url(#screenArea)"/>
    <circle cx="540" cy="160" r="30" fill="#2c2c2e"/>
    <circle cx="480" cy="160" r="10" fill="#3a3a3c"/>
    <circle cx="540" cy="1740" r="50" fill="none" stroke="#2c2c2e" stroke-width="3"/>
    <rect x="210" y="260" width="180" height="60" rx="8" fill="#e9ecef"/>
    <rect x="210" y="360" width="660" height="40" rx="6" fill="#dee2e6"/>
    <rect x="210" y="420" width="520" height="40" rx="6" fill="#e9ecef"/>
    <rect x="210" y="520" width="660" height="300" rx="16" fill="#ced4da"/>
    <rect x="210" y="860" width="320" height="200" rx="12" fill="#dee2e6"/>
    <rect x="550" y="860" width="320" height="200" rx="12" fill="#e9ecef"/>
    <rect x="210" y="1100" width="660" height="120" rx="12" fill="#ced4da"/>
    <rect x="210" y="1260" width="660" height="80" rx="8" fill="#dee2e6"/>
    <rect x="210" y="1370" width="660" height="80" rx="8" fill="#e9ecef"/>
  </g>
</svg>
