<svg xmlns="http://www.w3.org/2000/svg" viewBox="0 0 1080 1350" width="1080" height="1350">
  <defs>
    <linearGradient id="posterBg" x1="0%" y1="0%" x2="0%" y2="100%">
      <stop offset="0%" style="stop-color:#f8f9fa;stop-opacity:1" />
      <stop offset="100%" style="stop-color:#e9ecef;stop-opacity:1" />
    </linearGradient>
  </defs>
  <rect width="1080" height="1350" fill="url(#posterBg)"/>
  <g transform="translate(120, 120)">
    <rect x="0" y="0" width="840" height="1110" rx="8" fill="#ffffff"/>
    <rect x="-12" y="-12" width="864" height="1134" rx="10" fill="#ced4da" opacity="0.5"/>
    <rect x="0" y="0" width="840" height="1110" rx="8" fill="#ffffff"/>
    <rect x="40" y="40" width="760" height="360" rx="6" fill="#e9ecef"/>
    <rect x="40" y="440" width="480" height="60" rx="4" fill="#dee2e6"/>
    <rect x="40" y="520" width="640" height="36" rx="3" fill="#f1f3f5"/>
    <rect x="40" y="570" width="760" height="3" fill="#e9ecef"/>
    <rect x="40" y="600" width="760" height="28" rx="3" fill="#f1f3f5"/>
    <rect x="40" y="640" width="680" height="28" rx="3" fill="#f8f9fa"/>
    <rect x="40" y="680" width="720" height="28" rx="3" fill="#f1f3f5"/>
    <rect x="40" y="720" width="600" height="28" rx="3" fill="#f8f9fa"/>
    <rect x="40" y="780" width="240" height="56" rx="28" fill="#dee2e6"/>
    <rect x="40" y="860" width="360" height="200" rx="8" fill="#e9ecef"/>
    <rect x="420" y="860" width="380" height="200" rx="8" fill="#f1f3f5"/>
    <rect x="40" y="1000" width="760" height="50" rx="6" fill="#f8f9fa"/>
  </g>
</svg>
