<svg xmlns="http://www.w3.org/2000/svg" viewBox="0 0 1080 1080" width="1080" height="1080">
  <defs>
    <linearGradient id="poster2Bg" x1="0%" y1="0%" x2="0%" y2="100%">
      <stop offset="0%" style="stop-color:#f1f3f5;stop-opacity:1" />
      <stop offset="100%" style="stop-color:#e9ecef;stop-opacity:1" />
    </linearGradient>
  </defs>
  <rect width="1080" height="1080" fill="url(#poster2Bg)"/>
  <g transform="translate(140, 140)">
    <rect x="0" y="0" width="800" height="800" rx="12" fill="#ffffff"/>
    <rect x="-8" y="-8" width="816" height="816" rx="14" fill="#ced4da" opacity="0.4"/>
    <rect x="0" y="0" width="800" height="800" rx="12" fill="#ffffff"/>
    <rect x="60" y="60" width="240" height="240" rx="8" fill="#e9ecef"/>
    <rect x="320" y="60" width="420" height="100" rx="6" fill="#dee2e6"/>
    <rect x="320" y="180" width="360" height="60" rx="4" fill="#f1f3f5"/>
    <rect x="60" y="340" width="680" height="4" fill="#e9ecef"/>
    <rect x="60" y="380" width="680" height="28" rx="3" fill="#f1f3f5"/>
    <rect x="60" y="420" width="600" height="28" rx="3" fill="#f8f9fa"/>
    <rect x="60" y="460" width="640" height="28" rx="3" fill="#f1f3f5"/>
    <rect x="60" y="500" width="560" height="28" rx="3" fill="#f8f9fa"/>
    <rect x="60" y="560" width="680" height="180" rx="10" fill="#e9ecef"/>
    <rect x="60" y="760" width="200" height="48" rx="24" fill="#dee2e6"/>
    <rect x="280" y="760" width="180" height="48" rx="24" fill="#f1f3f5"/>
  </g>
</svg>
