<svg xmlns="http://www.w3.org/2000/svg" viewBox="0 0 1080 1920" width="1080" height="1920">
  <defs>
    <linearGradient id="phone2Bg" x1="0%" y1="0%" x2="100%" y2="100%">
      <stop offset="0%" style="stop-color:#f1f3f5;stop-opacity:1" />
      <stop offset="100%" style="stop-color:#dee2e6;stop-opacity:1" />
    </linearGradient>
  </defs>
  <rect width="1080" height="1920" fill="url(#phone2Bg)"/>
  <g>
    <rect x="130" y="100" width="820" height="1720" rx="90" ry="90" fill="#e9ecef"/>
    <rect x="160" y="140" width="760" height="1600" rx="50" ry="50" fill="#ffffff"/>
    <rect x="160" y="140" width="760" height="300" rx="50" ry="50" fill="#f8f9fa"/>
    <circle cx="540" cy="110" r="25" fill="#ced4da"/>
    <circle cx="470" cy="110" r="8" fill="#dee2e6"/>
    <rect x="220" y="220" width="120" height="48" rx="24" fill="#e9ecef"/>
    <rect x="220" y="500" width="640" height="320" rx="20" fill="#f1f3f5"/>
    <rect x="220" y="870" width="300" height="180" rx="16" fill="#e9ecef"/>
    <rect x="560" y="870" width="300" height="180" rx="16" fill="#f1f3f5"/>
    <rect x="220" y="1090" width="640" height="100" rx="12" fill="#f8f9fa"/>
    <rect x="220" y="1220" width="640" height="100" rx="12" fill="#e9ecef"/>
    <rect x="220" y="1350" width="640" height="100" rx="12" fill="#f1f3f5"/>
    <rect x="220" y="1480" width="280" height="56" rx="28" fill="#ced4da"/>
    <rect x="560" y="1480" width="300" height="56" rx="28" fill="#e9ecef"/>
  </g>
</svg>
